<svg xmlns="http://www.w3.org/2000/svg" width="120" height="26" viewBox="24 24 120 26" fill="none">
  <path fill-rule="evenodd" clip-rule="evenodd" d="M137.123 44.4545C139.693 44.4545 141.647 43.6373 142.986 42.0031L139.602 40.3654C139.471 40.4399 139.336 40.5057 139.197 40.5624C138.569 40.8065 137.899 40.9246 137.226 40.9101C136.149 40.9101 135.25 40.6459 134.53 40.0988C133.808 39.5558 133.318 38.7536 133.159 37.8561H143.923C143.944 37.5295 143.962 37.2701 143.975 37.0779C143.991 36.839 144 36.7037 144 36.6715C144 35.086 143.679 33.6975 143.036 32.4932C142.427 31.3345 141.503 30.3772 140.375 29.7347C137.978 28.4362 135.097 28.4532 132.715 29.7799C131.57 30.4408 130.628 31.411 129.994 32.5825C129.324 33.8162 128.981 35.2059 129.001 36.6147C129.001 38.1261 129.338 39.4737 130.012 40.6575C130.677 41.8483 131.669 42.8178 132.867 43.4484C134.099 44.1172 135.524 44.4545 137.123 44.4545ZM133.105 35.2806C133.246 34.3009 133.634 33.5282 134.269 32.9626C134.904 32.3954 135.688 32.1111 136.623 32.1095C137.479 32.0869 138.312 32.3961 138.951 32.9742C139.586 33.5498 139.973 34.3186 140.115 35.2806H133.105Z" fill="#3BA1C4"/>
  <path d="M36.7177 30.8571C37.7846 31.9763 38.3181 33.6362 38.3181 35.8366V44.4522H34.2576V36.5077C34.2576 35.3143 34.0144 34.4237 33.5282 33.8358C33.0419 33.2479 32.3384 32.9544 31.4175 32.9551C30.3941 32.9551 29.5785 33.2953 28.9709 33.9755C28.3632 34.6558 28.0594 35.6674 28.0594 37.0104V44.4545H24V30.6612L27.8796 28.7727V31.1651C28.4265 30.5239 29.1126 30.0216 29.8835 29.6981C30.7165 29.3453 31.6112 29.1688 32.5133 29.1793C34.2486 29.1785 35.65 29.7378 36.7177 30.8571Z" fill="white"/>
  <path d="M41.7255 30.6616V44.4545H45.8163V28.7727L41.7255 30.6616Z" fill="white"/>
  <path d="M45.8163 24V27.5573L41.7255 29.4545V25.8984L45.8163 24Z" fill="white"/>
  <path d="M66.2742 25.9025V29.4545L70.3651 27.552V24L66.2742 25.9025Z" fill="white"/>
  <path d="M61.2599 30.8571C62.3269 31.9763 62.8603 33.6362 62.8603 35.8366V44.4522H58.7998V36.5077C58.7998 35.3143 58.5567 34.4237 58.0704 33.8358C57.5841 33.2479 56.8813 32.9544 55.962 32.9551C54.9378 32.9551 54.1222 33.2953 53.5154 33.9755C52.9085 34.6558 52.6046 35.6674 52.6039 37.0104V44.4545H48.5422V30.6612L52.4218 28.7727V31.1651C52.9687 30.5239 53.6548 30.0216 54.4257 29.6981C55.2604 29.3441 56.1571 29.1672 57.0612 29.1781C58.7927 29.1781 60.1923 29.7378 61.2599 30.8571Z" fill="white"/>
  <path d="M70.3635 28.7727V44.271C70.3635 46.0143 69.8816 47.3896 68.9179 48.3969C67.9542 49.4042 66.607 49.9082 64.8764 49.909C63.3985 49.909 62.273 49.6316 61.4999 49.0768L62.6328 45.9389C63.1197 46.2898 63.7143 46.4649 64.4167 46.4641C64.9581 46.4641 65.3792 46.2856 65.6873 45.9241C65.9953 45.5626 66.1469 45.0214 66.1469 44.2995V30.6566L70.3635 28.7727Z" fill="white"/>
  <path fill-rule="evenodd" clip-rule="evenodd" d="M88.0873 44.2336V30.6349L83.9122 28.7727V30.9658C82.877 29.7703 81.441 29.1725 79.6041 29.1725C78.3135 29.1555 77.0422 29.4798 75.9246 30.1109C74.8202 30.7433 73.9242 31.6717 73.3425 32.7862C72.7187 33.9433 72.4064 35.2856 72.4056 36.8131C72.4048 38.3407 72.7172 39.683 73.3425 40.8401C73.924 41.9551 74.82 42.8838 75.9246 43.5165C77.0423 44.1473 78.3136 44.4711 79.6041 44.4538C81.5658 44.4553 83.0642 43.8116 84.0993 42.5227V44.2336H88.0873ZM83.9889 36.8131C83.9889 38.0644 83.6423 39.0619 82.9492 39.8057C82.2857 40.5369 81.3264 40.9455 80.3267 40.9225C79.2538 40.9218 78.3708 40.5495 77.6776 39.8057C76.9845 39.0619 76.6379 38.0644 76.6379 36.8131C76.6348 35.5626 76.9814 34.5651 77.6776 33.8205C78.3739 33.076 79.2569 32.7037 80.3267 32.7037C81.3264 32.6808 82.2857 33.0893 82.9492 33.8205C83.6423 34.5644 83.9889 35.5619 83.9889 36.8131Z" fill="white"/>
  <path fill-rule="evenodd" clip-rule="evenodd" d="M91.4529 39.6331C92.3142 41.1161 93.5802 42.3401 95.1119 43.1708C96.6698 44.0265 98.419 44.4544 100.36 44.4544C102.3 44.4544 104.044 44.0254 105.592 43.1675C107.12 42.3323 108.385 41.1094 109.251 39.6298C110.141 38.1293 110.586 36.4409 110.586 34.5647C110.586 32.6886 110.141 30.9998 109.251 29.4986C108.384 28.0208 107.12 26.7995 105.592 25.9654C104.044 25.1089 102.3 24.681 100.36 24.6818C98.419 24.6825 96.6698 25.1104 95.1119 25.9654C93.581 26.795 92.315 28.0174 91.4529 29.4986C90.5721 31.0028 90.1317 32.6927 90.1317 34.5681C90.1317 36.4435 90.5721 38.1319 91.4529 39.6331ZM105.449 37.7357C104.971 38.6337 104.245 39.3854 103.352 39.907V39.9059C101.502 40.9435 99.2207 40.9435 97.3702 39.9059C96.4776 39.3846 95.752 38.6328 95.2744 37.7345C94.7543 36.756 94.4925 35.6677 94.5124 34.5669C94.4925 33.4662 94.7543 32.3779 95.2744 31.3994C95.7522 30.501 96.4778 29.7489 97.3702 29.2269C99.2207 28.1893 101.502 28.1893 103.352 29.2269C104.245 29.7492 104.971 30.5012 105.449 31.3994C105.969 32.3785 106.23 33.4671 106.21 34.5681C106.23 35.6686 105.968 36.7569 105.449 37.7357Z" fill="#3BA1C4"/>
  <path d="M125.354 30.8571C126.419 31.9763 126.951 33.6362 126.951 35.8366V44.4522H122.892V36.5077C122.892 35.3143 122.649 34.4237 122.164 33.8358C121.678 33.2479 120.975 32.9544 120.055 32.9551C119.03 32.9551 118.215 33.2953 117.608 33.9755C117.001 34.6558 116.696 35.6674 116.695 37.0104V44.4545H112.633V30.6612L116.514 28.7727V31.1651C117.062 30.5236 117.749 30.0213 118.52 29.6981C119.354 29.3452 120.249 29.1687 121.151 29.1793C122.884 29.1785 124.285 29.7378 125.354 30.8571Z" fill="#3BA1C4"/>
</svg>